<?xml version="1.0" encoding="UTF-8" standalone="no"?>
<svg
   xmlns:dc="http://purl.org/dc/elements/1.1/"
   xmlns:cc="http://creativecommons.org/ns#"
   xmlns:rdf="http://www.w3.org/1999/02/22-rdf-syntax-ns#"
   xmlns:svg="http://www.w3.org/2000/svg"
   xmlns="http://www.w3.org/2000/svg"
   xmlns:xlink="http://www.w3.org/1999/xlink"
   xmlns:sodipodi="http://sodipodi.sourceforge.net/DTD/sodipodi-0.dtd"
   xmlns:inkscape="http://www.inkscape.org/namespaces/inkscape"
   width="103.96784mm"
   height="98.622452mm"
   viewBox="0 0 103.96784 98.622452"
   version="1.1"
   id="svg8"
   inkscape:version="1.0 (4035a4fb49, 2020-05-01)"
   sodipodi:docname="eye.svg">
  <defs
     id="defs2">
    <linearGradient
       inkscape:collect="always"
       id="linearGradient1073">
      <stop
         style="stop-color:#ffffff;stop-opacity:0.58012821"
         offset="0"
         id="stop1069" />
      <stop
         style="stop-color:#ffffff;stop-opacity:0;"
         offset="1"
         id="stop1071" />
    </linearGradient>
    <linearGradient
       inkscape:collect="always"
       id="linearGradient1001">
      <stop
         style="stop-color:#bdfffc;stop-opacity:0.69871795"
         offset="0"
         id="stop997" />
      <stop
         style="stop-color:#21fff5;stop-opacity:0"
         offset="1"
         id="stop999" />
    </linearGradient>
    <linearGradient
       id="linearGradient857"
       inkscape:collect="always">
      <stop
         id="stop853"
         offset="0"
         style="stop-color:#ffffff;stop-opacity:1" />
      <stop
         style="stop-color:#fefefe;stop-opacity:0.97254908"
         offset="0.25806457"
         id="stop861" />
      <stop
         style="stop-color:#999999;stop-opacity:0.45490196"
         offset="0.64322579"
         id="stop859" />
      <stop
         id="stop855"
         offset="1"
         style="stop-color:#474747;stop-opacity:0.17647058" />
    </linearGradient>
    <radialGradient
       inkscape:collect="always"
       xlink:href="#linearGradient857"
       id="radialGradient863"
       gradientUnits="userSpaceOnUse"
       gradientTransform="matrix(1.2548387,0,0,1.1903226,-71.354719,-79.777278)"
       cx="97.664742"
       cy="108.69691"
       fx="97.664742"
       fy="108.69691"
       r="41.426773" />
    <radialGradient
       inkscape:collect="always"
       xlink:href="#linearGradient1001"
       id="radialGradient1003"
       cx="115.99495"
       cy="91.539795"
       fx="115.99495"
       fy="91.539795"
       r="20.674505"
       gradientUnits="userSpaceOnUse"
       gradientTransform="translate(-63.929789,-42.47162)" />
    <linearGradient
       inkscape:collect="always"
       xlink:href="#linearGradient1073"
       id="linearGradient1075"
       x1="91.413666"
       y1="165.96068"
       x2="91.754997"
       y2="129.13495"
       gradientUnits="userSpaceOnUse"
       gradientTransform="translate(-40.090429,-129.13495)" />
  </defs>
  <sodipodi:namedview
     fit-margin-bottom="0"
     fit-margin-right="0"
     fit-margin-left="0"
     fit-margin-top="0"
     id="base"
     pagecolor="#ffffff"
     bordercolor="#666666"
     borderopacity="1.0"
     inkscape:pageopacity="0.0"
     inkscape:pageshadow="2"
     inkscape:zoom="1.4"
     inkscape:cx="419.82874"
     inkscape:cy="172.2251"
     inkscape:document-units="mm"
     inkscape:current-layer="layer1"
     inkscape:document-rotation="0"
     showgrid="false"
     showguides="true"
     inkscape:guide-bbox="true"
     inkscape:window-width="1920"
     inkscape:window-height="1017"
     inkscape:window-x="-8"
     inkscape:window-y="-8"
     inkscape:window-maximized="1">
    <sodipodi:guide
       position="-16.11741,98.379402"
       orientation="0,-1"
       id="guide916" />
    <sodipodi:guide
       position="-0.34850731,30.760222"
       orientation="1,0"
       id="guide1077" />
  </sodipodi:namedview>
  <metadata
     id="metadata5">
    <rdf:RDF>
      <cc:Work
         rdf:about="">
        <dc:format>image/svg+xml</dc:format>
        <dc:type
           rdf:resource="http://purl.org/dc/dcmitype/StillImage" />
        <dc:title></dc:title>
      </cc:Work>
    </rdf:RDF>
  </metadata>
  <g
     transform="translate(-0.08123779,0.24304962)"
     inkscape:label="Warstwa 1"
     inkscape:groupmode="layer"
     id="layer1">
    <ellipse
       style="fill:url(#radialGradient863);fill-opacity:1;fill-rule:evenodd;stroke-width:0.323362"
       id="path10"
       cx="52.065159"
       cy="49.068176"
       rx="51.983921"
       ry="49.311226" />
    <circle
       style="fill:#ffffff;fill-opacity:0.887097;stroke:none;stroke-width:2;stroke-miterlimit:4;stroke-dasharray:none;stroke-opacity:1"
       id="path956"
       cx="52.065159"
       cy="49.068176"
       r="25.52459" />
    <circle
       r="21.774504"
       cy="49.068176"
       cx="52.065159"
       id="circle958"
       style="fill:#243b91;fill-opacity:0.939759;stroke:none;stroke-width:1.70615;stroke-miterlimit:4;stroke-dasharray:none;stroke-opacity:1" />
    <circle
       style="fill:url(#radialGradient1003);fill-opacity:1;stroke:none;stroke-width:1.61991;stroke-miterlimit:4;stroke-dasharray:none;stroke-opacity:1"
       id="circle969"
       cx="52.065159"
       cy="49.068176"
       r="20.674505" />
    <path
       sodipodi:type="star"
       style="opacity:0.878205;fill:#ffffff;fill-opacity:0.939759;stroke:none;stroke-width:2;stroke-miterlimit:4;stroke-dasharray:none;stroke-opacity:1"
       id="path971"
       sodipodi:sides="40"
       sodipodi:cx="52.065159"
       sodipodi:cy="49.068184"
       sodipodi:r1="19.133587"
       sodipodi:r2="9.1341047"
       sodipodi:arg1="0.49488744"
       sodipodi:arg2="0.57342726"
       inkscape:flatsided="false"
       inkscape:rounded="0"
       inkscape:randomized="0"
       d="m 68.90314,58.155348 -9.164908,-4.131782 7.536058,6.653944 -8.405719,-5.51462 6.402371,7.750923 -7.439554,-6.76167 5.111035,8.657047 -6.290202,-7.842226 3.693849,9.350007 -4.985965,-8.729679 2.185709,9.812738 -3.558957,-9.402179 0.623748,10.033847 -2.044315,-9.843167 -0.95357,10.00789 -0.479337,-10.041782 -2.507409,9.735504 1.097446,-9.993135 -3.999507,9.223399 2.647206,-9.698425 -5.393124,8.484183 4.131782,-9.164908 -6.653945,7.536058 5.51462,-8.405719 -7.750922,6.402371 6.76167,-7.439554 -8.657047,5.111035 7.842225,-6.290202 -9.350006,3.693849 8.729679,-4.985965 -9.812738,2.185709 9.402179,-3.558957 -10.033847,0.623748 9.843166,-2.044315 -10.007889,-0.95357 10.041782,-0.479337 -9.735505,-2.507409 9.993136,1.097446 -9.223399,-3.999507 9.698425,2.647206 -8.484183,-5.393124 9.164907,4.131782 -7.536058,-6.653945 8.405719,5.51462 -6.40237,-7.750922 7.439554,6.76167 -5.111036,-8.657047 6.290203,7.842226 -3.69385,-9.350007 4.985966,8.729679 -2.185709,-9.812738 3.558957,9.402179 -0.623749,-10.033847 2.044316,9.843166 0.95357,-10.007889 0.479336,10.041782 2.507409,-9.735505 -1.097446,9.993136 3.999507,-9.223399 -2.647205,9.698425 5.393124,-8.484183 -4.131782,9.164908 6.653944,-7.536059 -5.51462,8.405719 7.750923,-6.40237 -6.76167,7.439554 8.657047,-5.111036 -7.842226,6.290203 9.350007,-3.69385 -8.729679,4.985966 9.812738,-2.185709 -9.402179,3.558957 10.033846,-0.623749 -9.843166,2.044316 10.00789,0.95357 -10.041782,0.479336 9.735504,2.507409 -9.993135,-1.097446 9.223399,3.999507 -9.698425,-2.647205 z"
       inkscape:transform-center-x="-0.2746373"
       inkscape:transform-center-y="-4.5435821" />
    <circle
       style="opacity:1;fill:#000000;fill-opacity:1;stroke:none;stroke-width:1.96704;stroke-miterlimit:4;stroke-dasharray:none;stroke-opacity:1"
       id="path1007"
       cx="52.065159"
       cy="49.068176"
       r="8.9615002" />
    <path
       id="path1009"
       style="opacity:0.807692;fill:url(#linearGradient1075);fill-opacity:1;stroke:none;stroke-width:1.65724;stroke-miterlimit:4;stroke-dasharray:none;stroke-opacity:1"
       d="M 51.664572,7.7928821e-7 A 51.98392,49.311226 0 0 0 32.480732,3.5398408 20.599701,52.160712 0 0 0 51.675422,36.7683 20.599701,52.160712 0 0 0 70.886131,3.4359708 51.98392,49.311226 0 0 0 51.820632,7.7928822e-7 a 51.98392,49.311226 0 0 0 -0.15606,-1e-14 z" />
    <path
       id="path926"
       style="opacity:0.807692;fill:#fefffc;fill-opacity:1;stroke:none;stroke-width:1.58733;stroke-miterlimit:4;stroke-dasharray:none;stroke-opacity:1"
       d="m 44.560801,6.1946308 a 35.194293,35.194293 0 0 0 -24.18974,9.6573202 l 1.62127,1.62128 c 5.89594,-5.57298 13.84832,-8.9923202 22.59598,-8.9923202 1.70949,0 3.38851,0.13067 5.02793,0.38233 v -2.30748 a 35.194293,35.194293 0 0 0 -4.99999,-0.36113 z m 0.0275,3.73714 c -8.35489,0 -15.94457,3.2535102 -21.57569,8.5617402 l 2.10054,2.10054 a 28.490612,28.490612 0 0 1 19.47515,-7.69565 28.490612,28.490612 0 0 1 5.02794,0.44679 v -3.01171 c -1.63735,-0.26275 -3.31617,-0.4017102 -5.02794,-0.4017102 z M 19.051851,17.171151 A 35.194293,35.194293 0 0 0 9.3945311,41.3884 a 35.194293,35.194293 0 0 0 0.36024,5.02839 h 2.3079299 c -0.25159,-1.63918 -0.38233,-3.31826 -0.38233,-5.02748 0,-8.747889 3.41961,-16.700809 8.99276,-22.596879 z m 2.64156,2.64157 c -5.30851,5.63127 -8.56218,13.22136 -8.56218,21.576589 0,1.71139 0.13818,3.39049 0.4008,5.02748 h 3.01307 a 28.490612,28.490612 0 0 1 -0.44725,-5.02839 28.490612,28.490612 0 0 1 7.69655,-19.474699 z" />
  </g>
</svg>
